<?xml version="1.0" encoding="UTF-8" standalone="no"?>
<svg width="200" height="64" viewBox="0 0 200 64" fill="none" xmlns="http://www.w3.org/2000/svg">
  <!-- WhatsApp Icon Base (Stylized) -->
  <g transform="translate(10, 12) scale(0.9)">
    <path d="M34.9962 4.01782C29.451 1.3603 22.9738 1.35972 17.4283 4.01577C11.8828 6.67182 7.94468 11.641 6.6165 17.512C5.28832 23.383 6.71468 29.5069 10.5157 34.2155L7.85211 42.1474C7.5087 43.1893 8.61609 44.1276 9.61657 43.6486L17.2826 39.934C20.9289 42.4462 25.377 43.5498 29.8293 43.05C34.2815 42.5502 38.416 40.48 41.4336 37.2011C44.4512 33.9222 46.1515 29.6489 46.2455 25.1915C46.3396 20.734 44.8221 16.3942 41.9503 12.9891C39.0786 9.58391 35.0594 7.29854 30.6318 6.52414" fill="#25D366"/>
    <path d="M34.9962 4.01782C29.451 1.3603 22.9738 1.35972 17.4283 4.01577C11.8828 6.67182 7.94468 11.641 6.6165 17.512C5.28832 23.383 6.71468 29.5069 10.5157 34.2155L7.85211 42.1474C7.5087 43.1893 8.61609 44.1276 9.61657 43.6486L17.2826 39.934C20.9289 42.4462 25.377 43.5498 29.8293 43.05C34.2815 42.5502 38.416 40.48 41.4336 37.2011C44.4512 33.9222 46.1515 29.6489 46.2455 25.1915C46.3396 20.734 44.8221 16.3942 41.9503 12.9891C39.0786 9.58391 35.0594 7.29854 30.6318 6.52414" stroke="white" stroke-width="1.5"/>
    <path fill-rule="evenodd" clip-rule="evenodd" d="M26.9379 32.5961C30.5379 32.5961 33.4629 29.6711 33.4629 26.0711C33.4629 22.4711 30.5379 19.5461 26.9379 19.5461C23.3379 19.5461 20.4129 22.4711 20.4129 26.0711C20.4129 29.6711 23.3379 32.5961 26.9379 32.5961ZM26.9379 29.2711C28.7039 29.2711 30.1379 27.8371 30.1379 26.0711C30.1379 24.3051 28.7039 22.8711 26.9379 22.8711C25.1719 22.8711 23.7379 24.3051 23.7379 26.0711C23.7379 27.8371 25.1719 29.2711 26.9379 29.2711Z" fill="white"/>
    <path d="M35.3129 24.2211C35.3129 23.3411 34.5929 22.6211 33.7129 22.6211C32.8329 22.6211 32.1129 23.3411 32.1129 24.2211C32.1129 25.1011 32.8329 25.8211 33.7129 25.8211C34.5929 25.8211 35.3129 25.1011 35.3129 24.2211Z" fill="white"/>
    <path d="M21.7129 27.8961C21.7129 26.7961 20.8129 25.8961 19.7129 25.8961C18.6129 25.8961 17.7129 26.7961 17.7129 27.8961C17.7129 28.9961 18.6129 29.8961 19.7129 29.8961C20.8129 29.8961 21.7129 28.9961 21.7129 27.8961Z" fill="white"/>
  </g>
  
  <!-- Text "ZapBan" -->
  <text x="70" y="35" font-family="Arial, sans-serif" font-weight="bold" font-size="28" fill="#6366F1">
    ZapBan
  </text>
  
  <!-- Highlight -->
  <rect x="70" y="40" width="90" height="3" rx="1.5" fill="#6366F1" opacity="0.6"/>
</svg>